%TF.GenerationSoftware,KiCad,Pcbnew,10.0.1*%
%TF.CreationDate,2026-06-12T13:23:50-04:00*%
%TF.ProjectId,FamiComposite,46616d69-436f-46d7-906f-736974652e6b,rev?*%
%TF.SameCoordinates,Original*%
%TF.FileFunction,Legend,Bot*%
%TF.FilePolarity,Positive*%
%FSLAX46Y46*%
G04 Gerber Fmt 4.6, Leading zero omitted, Abs format (unit mm)*
G04 Created by KiCad (PCBNEW 10.0.1) date 2026-06-12 13:23:50*
%MOMM*%
%LPD*%
G01*
G04 APERTURE LIST*
%ADD10C,0.087500*%
G04 APERTURE END LIST*
D10*
X127875768Y-77081350D02*
X127909101Y-77114684D01*
X127909101Y-77114684D02*
X128009101Y-77148017D01*
X128009101Y-77148017D02*
X128075768Y-77148017D01*
X128075768Y-77148017D02*
X128175768Y-77114684D01*
X128175768Y-77114684D02*
X128242435Y-77048017D01*
X128242435Y-77048017D02*
X128275768Y-76981350D01*
X128275768Y-76981350D02*
X128309101Y-76848017D01*
X128309101Y-76848017D02*
X128309101Y-76748017D01*
X128309101Y-76748017D02*
X128275768Y-76614684D01*
X128275768Y-76614684D02*
X128242435Y-76548017D01*
X128242435Y-76548017D02*
X128175768Y-76481350D01*
X128175768Y-76481350D02*
X128075768Y-76448017D01*
X128075768Y-76448017D02*
X128009101Y-76448017D01*
X128009101Y-76448017D02*
X127909101Y-76481350D01*
X127909101Y-76481350D02*
X127875768Y-76514684D01*
X127209101Y-77148017D02*
X127609101Y-77148017D01*
X127409101Y-77148017D02*
X127409101Y-76448017D01*
X127409101Y-76448017D02*
X127475768Y-76548017D01*
X127475768Y-76548017D02*
X127542435Y-76614684D01*
X127542435Y-76614684D02*
X127609101Y-76648017D01*
X126409101Y-76514684D02*
X126375768Y-76481350D01*
X126375768Y-76481350D02*
X126309101Y-76448017D01*
X126309101Y-76448017D02*
X126142435Y-76448017D01*
X126142435Y-76448017D02*
X126075768Y-76481350D01*
X126075768Y-76481350D02*
X126042435Y-76514684D01*
X126042435Y-76514684D02*
X126009101Y-76581350D01*
X126009101Y-76581350D02*
X126009101Y-76648017D01*
X126009101Y-76648017D02*
X126042435Y-76748017D01*
X126042435Y-76748017D02*
X126442435Y-77148017D01*
X126442435Y-77148017D02*
X126009101Y-77148017D01*
X125775768Y-76448017D02*
X125342434Y-76448017D01*
X125342434Y-76448017D02*
X125575768Y-76714684D01*
X125575768Y-76714684D02*
X125475768Y-76714684D01*
X125475768Y-76714684D02*
X125409101Y-76748017D01*
X125409101Y-76748017D02*
X125375768Y-76781350D01*
X125375768Y-76781350D02*
X125342434Y-76848017D01*
X125342434Y-76848017D02*
X125342434Y-77014684D01*
X125342434Y-77014684D02*
X125375768Y-77081350D01*
X125375768Y-77081350D02*
X125409101Y-77114684D01*
X125409101Y-77114684D02*
X125475768Y-77148017D01*
X125475768Y-77148017D02*
X125675768Y-77148017D01*
X125675768Y-77148017D02*
X125742434Y-77114684D01*
X125742434Y-77114684D02*
X125775768Y-77081350D01*
X124675767Y-77148017D02*
X125075767Y-77148017D01*
X124875767Y-77148017D02*
X124875767Y-76448017D01*
X124875767Y-76448017D02*
X124942434Y-76548017D01*
X124942434Y-76548017D02*
X125009101Y-76614684D01*
X125009101Y-76614684D02*
X125075767Y-76648017D01*
X124409100Y-76514684D02*
X124375767Y-76481350D01*
X124375767Y-76481350D02*
X124309100Y-76448017D01*
X124309100Y-76448017D02*
X124142434Y-76448017D01*
X124142434Y-76448017D02*
X124075767Y-76481350D01*
X124075767Y-76481350D02*
X124042434Y-76514684D01*
X124042434Y-76514684D02*
X124009100Y-76581350D01*
X124009100Y-76581350D02*
X124009100Y-76648017D01*
X124009100Y-76648017D02*
X124042434Y-76748017D01*
X124042434Y-76748017D02*
X124442434Y-77148017D01*
X124442434Y-77148017D02*
X124009100Y-77148017D01*
X122675767Y-76514684D02*
X122642434Y-76481350D01*
X122642434Y-76481350D02*
X122575767Y-76448017D01*
X122575767Y-76448017D02*
X122409101Y-76448017D01*
X122409101Y-76448017D02*
X122342434Y-76481350D01*
X122342434Y-76481350D02*
X122309101Y-76514684D01*
X122309101Y-76514684D02*
X122275767Y-76581350D01*
X122275767Y-76581350D02*
X122275767Y-76648017D01*
X122275767Y-76648017D02*
X122309101Y-76748017D01*
X122309101Y-76748017D02*
X122709101Y-77148017D01*
X122709101Y-77148017D02*
X122275767Y-77148017D01*
X122009100Y-76514684D02*
X121975767Y-76481350D01*
X121975767Y-76481350D02*
X121909100Y-76448017D01*
X121909100Y-76448017D02*
X121742434Y-76448017D01*
X121742434Y-76448017D02*
X121675767Y-76481350D01*
X121675767Y-76481350D02*
X121642434Y-76514684D01*
X121642434Y-76514684D02*
X121609100Y-76581350D01*
X121609100Y-76581350D02*
X121609100Y-76648017D01*
X121609100Y-76648017D02*
X121642434Y-76748017D01*
X121642434Y-76748017D02*
X122042434Y-77148017D01*
X122042434Y-77148017D02*
X121609100Y-77148017D01*
X121175767Y-76448017D02*
X121109100Y-76448017D01*
X121109100Y-76448017D02*
X121042433Y-76481350D01*
X121042433Y-76481350D02*
X121009100Y-76514684D01*
X121009100Y-76514684D02*
X120975767Y-76581350D01*
X120975767Y-76581350D02*
X120942433Y-76714684D01*
X120942433Y-76714684D02*
X120942433Y-76881350D01*
X120942433Y-76881350D02*
X120975767Y-77014684D01*
X120975767Y-77014684D02*
X121009100Y-77081350D01*
X121009100Y-77081350D02*
X121042433Y-77114684D01*
X121042433Y-77114684D02*
X121109100Y-77148017D01*
X121109100Y-77148017D02*
X121175767Y-77148017D01*
X121175767Y-77148017D02*
X121242433Y-77114684D01*
X121242433Y-77114684D02*
X121275767Y-77081350D01*
X121275767Y-77081350D02*
X121309100Y-77014684D01*
X121309100Y-77014684D02*
X121342433Y-76881350D01*
X121342433Y-76881350D02*
X121342433Y-76714684D01*
X121342433Y-76714684D02*
X121309100Y-76581350D01*
X121309100Y-76581350D02*
X121275767Y-76514684D01*
X121275767Y-76514684D02*
X121242433Y-76481350D01*
X121242433Y-76481350D02*
X121175767Y-76448017D01*
X120642433Y-76681350D02*
X120642433Y-77381350D01*
X120309100Y-77048017D02*
X120275766Y-77114684D01*
X120275766Y-77114684D02*
X120209100Y-77148017D01*
X120642433Y-77048017D02*
X120609100Y-77114684D01*
X120609100Y-77114684D02*
X120542433Y-77148017D01*
X120542433Y-77148017D02*
X120409100Y-77148017D01*
X120409100Y-77148017D02*
X120342433Y-77114684D01*
X120342433Y-77114684D02*
X120309100Y-77048017D01*
X120309100Y-77048017D02*
X120309100Y-76681350D01*
X119675767Y-76781350D02*
X119909100Y-76781350D01*
X119909100Y-77148017D02*
X119909100Y-76448017D01*
X119909100Y-76448017D02*
X119575767Y-76448017D01*
X127875768Y-78208311D02*
X127909101Y-78241645D01*
X127909101Y-78241645D02*
X128009101Y-78274978D01*
X128009101Y-78274978D02*
X128075768Y-78274978D01*
X128075768Y-78274978D02*
X128175768Y-78241645D01*
X128175768Y-78241645D02*
X128242435Y-78174978D01*
X128242435Y-78174978D02*
X128275768Y-78108311D01*
X128275768Y-78108311D02*
X128309101Y-77974978D01*
X128309101Y-77974978D02*
X128309101Y-77874978D01*
X128309101Y-77874978D02*
X128275768Y-77741645D01*
X128275768Y-77741645D02*
X128242435Y-77674978D01*
X128242435Y-77674978D02*
X128175768Y-77608311D01*
X128175768Y-77608311D02*
X128075768Y-77574978D01*
X128075768Y-77574978D02*
X128009101Y-77574978D01*
X128009101Y-77574978D02*
X127909101Y-77608311D01*
X127909101Y-77608311D02*
X127875768Y-77641645D01*
X127609101Y-77641645D02*
X127575768Y-77608311D01*
X127575768Y-77608311D02*
X127509101Y-77574978D01*
X127509101Y-77574978D02*
X127342435Y-77574978D01*
X127342435Y-77574978D02*
X127275768Y-77608311D01*
X127275768Y-77608311D02*
X127242435Y-77641645D01*
X127242435Y-77641645D02*
X127209101Y-77708311D01*
X127209101Y-77708311D02*
X127209101Y-77774978D01*
X127209101Y-77774978D02*
X127242435Y-77874978D01*
X127242435Y-77874978D02*
X127642435Y-78274978D01*
X127642435Y-78274978D02*
X127209101Y-78274978D01*
X126409101Y-77641645D02*
X126375768Y-77608311D01*
X126375768Y-77608311D02*
X126309101Y-77574978D01*
X126309101Y-77574978D02*
X126142435Y-77574978D01*
X126142435Y-77574978D02*
X126075768Y-77608311D01*
X126075768Y-77608311D02*
X126042435Y-77641645D01*
X126042435Y-77641645D02*
X126009101Y-77708311D01*
X126009101Y-77708311D02*
X126009101Y-77774978D01*
X126009101Y-77774978D02*
X126042435Y-77874978D01*
X126042435Y-77874978D02*
X126442435Y-78274978D01*
X126442435Y-78274978D02*
X126009101Y-78274978D01*
X125775768Y-77574978D02*
X125342434Y-77574978D01*
X125342434Y-77574978D02*
X125575768Y-77841645D01*
X125575768Y-77841645D02*
X125475768Y-77841645D01*
X125475768Y-77841645D02*
X125409101Y-77874978D01*
X125409101Y-77874978D02*
X125375768Y-77908311D01*
X125375768Y-77908311D02*
X125342434Y-77974978D01*
X125342434Y-77974978D02*
X125342434Y-78141645D01*
X125342434Y-78141645D02*
X125375768Y-78208311D01*
X125375768Y-78208311D02*
X125409101Y-78241645D01*
X125409101Y-78241645D02*
X125475768Y-78274978D01*
X125475768Y-78274978D02*
X125675768Y-78274978D01*
X125675768Y-78274978D02*
X125742434Y-78241645D01*
X125742434Y-78241645D02*
X125775768Y-78208311D01*
X124675767Y-78274978D02*
X125075767Y-78274978D01*
X124875767Y-78274978D02*
X124875767Y-77574978D01*
X124875767Y-77574978D02*
X124942434Y-77674978D01*
X124942434Y-77674978D02*
X125009101Y-77741645D01*
X125009101Y-77741645D02*
X125075767Y-77774978D01*
X124409100Y-77641645D02*
X124375767Y-77608311D01*
X124375767Y-77608311D02*
X124309100Y-77574978D01*
X124309100Y-77574978D02*
X124142434Y-77574978D01*
X124142434Y-77574978D02*
X124075767Y-77608311D01*
X124075767Y-77608311D02*
X124042434Y-77641645D01*
X124042434Y-77641645D02*
X124009100Y-77708311D01*
X124009100Y-77708311D02*
X124009100Y-77774978D01*
X124009100Y-77774978D02*
X124042434Y-77874978D01*
X124042434Y-77874978D02*
X124442434Y-78274978D01*
X124442434Y-78274978D02*
X124009100Y-78274978D01*
X122275767Y-78274978D02*
X122675767Y-78274978D01*
X122475767Y-78274978D02*
X122475767Y-77574978D01*
X122475767Y-77574978D02*
X122542434Y-77674978D01*
X122542434Y-77674978D02*
X122609101Y-77741645D01*
X122609101Y-77741645D02*
X122675767Y-77774978D01*
X121842434Y-77574978D02*
X121775767Y-77574978D01*
X121775767Y-77574978D02*
X121709100Y-77608311D01*
X121709100Y-77608311D02*
X121675767Y-77641645D01*
X121675767Y-77641645D02*
X121642434Y-77708311D01*
X121642434Y-77708311D02*
X121609100Y-77841645D01*
X121609100Y-77841645D02*
X121609100Y-78008311D01*
X121609100Y-78008311D02*
X121642434Y-78141645D01*
X121642434Y-78141645D02*
X121675767Y-78208311D01*
X121675767Y-78208311D02*
X121709100Y-78241645D01*
X121709100Y-78241645D02*
X121775767Y-78274978D01*
X121775767Y-78274978D02*
X121842434Y-78274978D01*
X121842434Y-78274978D02*
X121909100Y-78241645D01*
X121909100Y-78241645D02*
X121942434Y-78208311D01*
X121942434Y-78208311D02*
X121975767Y-78141645D01*
X121975767Y-78141645D02*
X122009100Y-78008311D01*
X122009100Y-78008311D02*
X122009100Y-77841645D01*
X122009100Y-77841645D02*
X121975767Y-77708311D01*
X121975767Y-77708311D02*
X121942434Y-77641645D01*
X121942434Y-77641645D02*
X121909100Y-77608311D01*
X121909100Y-77608311D02*
X121842434Y-77574978D01*
X121309100Y-77808311D02*
X121309100Y-78508311D01*
X120975767Y-78174978D02*
X120942433Y-78241645D01*
X120942433Y-78241645D02*
X120875767Y-78274978D01*
X121309100Y-78174978D02*
X121275767Y-78241645D01*
X121275767Y-78241645D02*
X121209100Y-78274978D01*
X121209100Y-78274978D02*
X121075767Y-78274978D01*
X121075767Y-78274978D02*
X121009100Y-78241645D01*
X121009100Y-78241645D02*
X120975767Y-78174978D01*
X120975767Y-78174978D02*
X120975767Y-77808311D01*
X120342434Y-77908311D02*
X120575767Y-77908311D01*
X120575767Y-78274978D02*
X120575767Y-77574978D01*
X120575767Y-77574978D02*
X120242434Y-77574978D01*
X127875768Y-79335272D02*
X127909101Y-79368606D01*
X127909101Y-79368606D02*
X128009101Y-79401939D01*
X128009101Y-79401939D02*
X128075768Y-79401939D01*
X128075768Y-79401939D02*
X128175768Y-79368606D01*
X128175768Y-79368606D02*
X128242435Y-79301939D01*
X128242435Y-79301939D02*
X128275768Y-79235272D01*
X128275768Y-79235272D02*
X128309101Y-79101939D01*
X128309101Y-79101939D02*
X128309101Y-79001939D01*
X128309101Y-79001939D02*
X128275768Y-78868606D01*
X128275768Y-78868606D02*
X128242435Y-78801939D01*
X128242435Y-78801939D02*
X128175768Y-78735272D01*
X128175768Y-78735272D02*
X128075768Y-78701939D01*
X128075768Y-78701939D02*
X128009101Y-78701939D01*
X128009101Y-78701939D02*
X127909101Y-78735272D01*
X127909101Y-78735272D02*
X127875768Y-78768606D01*
X127642435Y-78701939D02*
X127209101Y-78701939D01*
X127209101Y-78701939D02*
X127442435Y-78968606D01*
X127442435Y-78968606D02*
X127342435Y-78968606D01*
X127342435Y-78968606D02*
X127275768Y-79001939D01*
X127275768Y-79001939D02*
X127242435Y-79035272D01*
X127242435Y-79035272D02*
X127209101Y-79101939D01*
X127209101Y-79101939D02*
X127209101Y-79268606D01*
X127209101Y-79268606D02*
X127242435Y-79335272D01*
X127242435Y-79335272D02*
X127275768Y-79368606D01*
X127275768Y-79368606D02*
X127342435Y-79401939D01*
X127342435Y-79401939D02*
X127542435Y-79401939D01*
X127542435Y-79401939D02*
X127609101Y-79368606D01*
X127609101Y-79368606D02*
X127642435Y-79335272D01*
X126242435Y-78701939D02*
X126175768Y-78701939D01*
X126175768Y-78701939D02*
X126109101Y-78735272D01*
X126109101Y-78735272D02*
X126075768Y-78768606D01*
X126075768Y-78768606D02*
X126042435Y-78835272D01*
X126042435Y-78835272D02*
X126009101Y-78968606D01*
X126009101Y-78968606D02*
X126009101Y-79135272D01*
X126009101Y-79135272D02*
X126042435Y-79268606D01*
X126042435Y-79268606D02*
X126075768Y-79335272D01*
X126075768Y-79335272D02*
X126109101Y-79368606D01*
X126109101Y-79368606D02*
X126175768Y-79401939D01*
X126175768Y-79401939D02*
X126242435Y-79401939D01*
X126242435Y-79401939D02*
X126309101Y-79368606D01*
X126309101Y-79368606D02*
X126342435Y-79335272D01*
X126342435Y-79335272D02*
X126375768Y-79268606D01*
X126375768Y-79268606D02*
X126409101Y-79135272D01*
X126409101Y-79135272D02*
X126409101Y-78968606D01*
X126409101Y-78968606D02*
X126375768Y-78835272D01*
X126375768Y-78835272D02*
X126342435Y-78768606D01*
X126342435Y-78768606D02*
X126309101Y-78735272D01*
X126309101Y-78735272D02*
X126242435Y-78701939D01*
X125609101Y-79001939D02*
X125675768Y-78968606D01*
X125675768Y-78968606D02*
X125709101Y-78935272D01*
X125709101Y-78935272D02*
X125742434Y-78868606D01*
X125742434Y-78868606D02*
X125742434Y-78835272D01*
X125742434Y-78835272D02*
X125709101Y-78768606D01*
X125709101Y-78768606D02*
X125675768Y-78735272D01*
X125675768Y-78735272D02*
X125609101Y-78701939D01*
X125609101Y-78701939D02*
X125475768Y-78701939D01*
X125475768Y-78701939D02*
X125409101Y-78735272D01*
X125409101Y-78735272D02*
X125375768Y-78768606D01*
X125375768Y-78768606D02*
X125342434Y-78835272D01*
X125342434Y-78835272D02*
X125342434Y-78868606D01*
X125342434Y-78868606D02*
X125375768Y-78935272D01*
X125375768Y-78935272D02*
X125409101Y-78968606D01*
X125409101Y-78968606D02*
X125475768Y-79001939D01*
X125475768Y-79001939D02*
X125609101Y-79001939D01*
X125609101Y-79001939D02*
X125675768Y-79035272D01*
X125675768Y-79035272D02*
X125709101Y-79068606D01*
X125709101Y-79068606D02*
X125742434Y-79135272D01*
X125742434Y-79135272D02*
X125742434Y-79268606D01*
X125742434Y-79268606D02*
X125709101Y-79335272D01*
X125709101Y-79335272D02*
X125675768Y-79368606D01*
X125675768Y-79368606D02*
X125609101Y-79401939D01*
X125609101Y-79401939D02*
X125475768Y-79401939D01*
X125475768Y-79401939D02*
X125409101Y-79368606D01*
X125409101Y-79368606D02*
X125375768Y-79335272D01*
X125375768Y-79335272D02*
X125342434Y-79268606D01*
X125342434Y-79268606D02*
X125342434Y-79135272D01*
X125342434Y-79135272D02*
X125375768Y-79068606D01*
X125375768Y-79068606D02*
X125409101Y-79035272D01*
X125409101Y-79035272D02*
X125475768Y-79001939D01*
X124909101Y-78701939D02*
X124842434Y-78701939D01*
X124842434Y-78701939D02*
X124775767Y-78735272D01*
X124775767Y-78735272D02*
X124742434Y-78768606D01*
X124742434Y-78768606D02*
X124709101Y-78835272D01*
X124709101Y-78835272D02*
X124675767Y-78968606D01*
X124675767Y-78968606D02*
X124675767Y-79135272D01*
X124675767Y-79135272D02*
X124709101Y-79268606D01*
X124709101Y-79268606D02*
X124742434Y-79335272D01*
X124742434Y-79335272D02*
X124775767Y-79368606D01*
X124775767Y-79368606D02*
X124842434Y-79401939D01*
X124842434Y-79401939D02*
X124909101Y-79401939D01*
X124909101Y-79401939D02*
X124975767Y-79368606D01*
X124975767Y-79368606D02*
X125009101Y-79335272D01*
X125009101Y-79335272D02*
X125042434Y-79268606D01*
X125042434Y-79268606D02*
X125075767Y-79135272D01*
X125075767Y-79135272D02*
X125075767Y-78968606D01*
X125075767Y-78968606D02*
X125042434Y-78835272D01*
X125042434Y-78835272D02*
X125009101Y-78768606D01*
X125009101Y-78768606D02*
X124975767Y-78735272D01*
X124975767Y-78735272D02*
X124909101Y-78701939D01*
X124042434Y-78701939D02*
X124375767Y-78701939D01*
X124375767Y-78701939D02*
X124409100Y-79035272D01*
X124409100Y-79035272D02*
X124375767Y-79001939D01*
X124375767Y-79001939D02*
X124309100Y-78968606D01*
X124309100Y-78968606D02*
X124142434Y-78968606D01*
X124142434Y-78968606D02*
X124075767Y-79001939D01*
X124075767Y-79001939D02*
X124042434Y-79035272D01*
X124042434Y-79035272D02*
X124009100Y-79101939D01*
X124009100Y-79101939D02*
X124009100Y-79268606D01*
X124009100Y-79268606D02*
X124042434Y-79335272D01*
X124042434Y-79335272D02*
X124075767Y-79368606D01*
X124075767Y-79368606D02*
X124142434Y-79401939D01*
X124142434Y-79401939D02*
X124309100Y-79401939D01*
X124309100Y-79401939D02*
X124375767Y-79368606D01*
X124375767Y-79368606D02*
X124409100Y-79335272D01*
X122309101Y-78701939D02*
X122642434Y-78701939D01*
X122642434Y-78701939D02*
X122675767Y-79035272D01*
X122675767Y-79035272D02*
X122642434Y-79001939D01*
X122642434Y-79001939D02*
X122575767Y-78968606D01*
X122575767Y-78968606D02*
X122409101Y-78968606D01*
X122409101Y-78968606D02*
X122342434Y-79001939D01*
X122342434Y-79001939D02*
X122309101Y-79035272D01*
X122309101Y-79035272D02*
X122275767Y-79101939D01*
X122275767Y-79101939D02*
X122275767Y-79268606D01*
X122275767Y-79268606D02*
X122309101Y-79335272D01*
X122309101Y-79335272D02*
X122342434Y-79368606D01*
X122342434Y-79368606D02*
X122409101Y-79401939D01*
X122409101Y-79401939D02*
X122575767Y-79401939D01*
X122575767Y-79401939D02*
X122642434Y-79368606D01*
X122642434Y-79368606D02*
X122675767Y-79335272D01*
X121675767Y-78701939D02*
X121809100Y-78701939D01*
X121809100Y-78701939D02*
X121875767Y-78735272D01*
X121875767Y-78735272D02*
X121909100Y-78768606D01*
X121909100Y-78768606D02*
X121975767Y-78868606D01*
X121975767Y-78868606D02*
X122009100Y-79001939D01*
X122009100Y-79001939D02*
X122009100Y-79268606D01*
X122009100Y-79268606D02*
X121975767Y-79335272D01*
X121975767Y-79335272D02*
X121942434Y-79368606D01*
X121942434Y-79368606D02*
X121875767Y-79401939D01*
X121875767Y-79401939D02*
X121742434Y-79401939D01*
X121742434Y-79401939D02*
X121675767Y-79368606D01*
X121675767Y-79368606D02*
X121642434Y-79335272D01*
X121642434Y-79335272D02*
X121609100Y-79268606D01*
X121609100Y-79268606D02*
X121609100Y-79101939D01*
X121609100Y-79101939D02*
X121642434Y-79035272D01*
X121642434Y-79035272D02*
X121675767Y-79001939D01*
X121675767Y-79001939D02*
X121742434Y-78968606D01*
X121742434Y-78968606D02*
X121875767Y-78968606D01*
X121875767Y-78968606D02*
X121942434Y-79001939D01*
X121942434Y-79001939D02*
X121975767Y-79035272D01*
X121975767Y-79035272D02*
X122009100Y-79101939D01*
X121175767Y-78701939D02*
X121109100Y-78701939D01*
X121109100Y-78701939D02*
X121042433Y-78735272D01*
X121042433Y-78735272D02*
X121009100Y-78768606D01*
X121009100Y-78768606D02*
X120975767Y-78835272D01*
X120975767Y-78835272D02*
X120942433Y-78968606D01*
X120942433Y-78968606D02*
X120942433Y-79135272D01*
X120942433Y-79135272D02*
X120975767Y-79268606D01*
X120975767Y-79268606D02*
X121009100Y-79335272D01*
X121009100Y-79335272D02*
X121042433Y-79368606D01*
X121042433Y-79368606D02*
X121109100Y-79401939D01*
X121109100Y-79401939D02*
X121175767Y-79401939D01*
X121175767Y-79401939D02*
X121242433Y-79368606D01*
X121242433Y-79368606D02*
X121275767Y-79335272D01*
X121275767Y-79335272D02*
X121309100Y-79268606D01*
X121309100Y-79268606D02*
X121342433Y-79135272D01*
X121342433Y-79135272D02*
X121342433Y-78968606D01*
X121342433Y-78968606D02*
X121309100Y-78835272D01*
X121309100Y-78835272D02*
X121275767Y-78768606D01*
X121275767Y-78768606D02*
X121242433Y-78735272D01*
X121242433Y-78735272D02*
X121175767Y-78701939D01*
X120642433Y-78935272D02*
X120642433Y-79635272D01*
X120642433Y-78968606D02*
X120575766Y-78935272D01*
X120575766Y-78935272D02*
X120442433Y-78935272D01*
X120442433Y-78935272D02*
X120375766Y-78968606D01*
X120375766Y-78968606D02*
X120342433Y-79001939D01*
X120342433Y-79001939D02*
X120309100Y-79068606D01*
X120309100Y-79068606D02*
X120309100Y-79268606D01*
X120309100Y-79268606D02*
X120342433Y-79335272D01*
X120342433Y-79335272D02*
X120375766Y-79368606D01*
X120375766Y-79368606D02*
X120442433Y-79401939D01*
X120442433Y-79401939D02*
X120575766Y-79401939D01*
X120575766Y-79401939D02*
X120642433Y-79368606D01*
X119775767Y-79035272D02*
X120009100Y-79035272D01*
X120009100Y-79401939D02*
X120009100Y-78701939D01*
X120009100Y-78701939D02*
X119675767Y-78701939D01*
X127875768Y-80462233D02*
X127909101Y-80495567D01*
X127909101Y-80495567D02*
X128009101Y-80528900D01*
X128009101Y-80528900D02*
X128075768Y-80528900D01*
X128075768Y-80528900D02*
X128175768Y-80495567D01*
X128175768Y-80495567D02*
X128242435Y-80428900D01*
X128242435Y-80428900D02*
X128275768Y-80362233D01*
X128275768Y-80362233D02*
X128309101Y-80228900D01*
X128309101Y-80228900D02*
X128309101Y-80128900D01*
X128309101Y-80128900D02*
X128275768Y-79995567D01*
X128275768Y-79995567D02*
X128242435Y-79928900D01*
X128242435Y-79928900D02*
X128175768Y-79862233D01*
X128175768Y-79862233D02*
X128075768Y-79828900D01*
X128075768Y-79828900D02*
X128009101Y-79828900D01*
X128009101Y-79828900D02*
X127909101Y-79862233D01*
X127909101Y-79862233D02*
X127875768Y-79895567D01*
X127275768Y-80062233D02*
X127275768Y-80528900D01*
X127442435Y-79795567D02*
X127609101Y-80295567D01*
X127609101Y-80295567D02*
X127175768Y-80295567D01*
X126409101Y-79895567D02*
X126375768Y-79862233D01*
X126375768Y-79862233D02*
X126309101Y-79828900D01*
X126309101Y-79828900D02*
X126142435Y-79828900D01*
X126142435Y-79828900D02*
X126075768Y-79862233D01*
X126075768Y-79862233D02*
X126042435Y-79895567D01*
X126042435Y-79895567D02*
X126009101Y-79962233D01*
X126009101Y-79962233D02*
X126009101Y-80028900D01*
X126009101Y-80028900D02*
X126042435Y-80128900D01*
X126042435Y-80128900D02*
X126442435Y-80528900D01*
X126442435Y-80528900D02*
X126009101Y-80528900D01*
X125775768Y-79828900D02*
X125342434Y-79828900D01*
X125342434Y-79828900D02*
X125575768Y-80095567D01*
X125575768Y-80095567D02*
X125475768Y-80095567D01*
X125475768Y-80095567D02*
X125409101Y-80128900D01*
X125409101Y-80128900D02*
X125375768Y-80162233D01*
X125375768Y-80162233D02*
X125342434Y-80228900D01*
X125342434Y-80228900D02*
X125342434Y-80395567D01*
X125342434Y-80395567D02*
X125375768Y-80462233D01*
X125375768Y-80462233D02*
X125409101Y-80495567D01*
X125409101Y-80495567D02*
X125475768Y-80528900D01*
X125475768Y-80528900D02*
X125675768Y-80528900D01*
X125675768Y-80528900D02*
X125742434Y-80495567D01*
X125742434Y-80495567D02*
X125775768Y-80462233D01*
X124675767Y-80528900D02*
X125075767Y-80528900D01*
X124875767Y-80528900D02*
X124875767Y-79828900D01*
X124875767Y-79828900D02*
X124942434Y-79928900D01*
X124942434Y-79928900D02*
X125009101Y-79995567D01*
X125009101Y-79995567D02*
X125075767Y-80028900D01*
X124409100Y-79895567D02*
X124375767Y-79862233D01*
X124375767Y-79862233D02*
X124309100Y-79828900D01*
X124309100Y-79828900D02*
X124142434Y-79828900D01*
X124142434Y-79828900D02*
X124075767Y-79862233D01*
X124075767Y-79862233D02*
X124042434Y-79895567D01*
X124042434Y-79895567D02*
X124009100Y-79962233D01*
X124009100Y-79962233D02*
X124009100Y-80028900D01*
X124009100Y-80028900D02*
X124042434Y-80128900D01*
X124042434Y-80128900D02*
X124442434Y-80528900D01*
X124442434Y-80528900D02*
X124009100Y-80528900D01*
X122275767Y-80528900D02*
X122675767Y-80528900D01*
X122475767Y-80528900D02*
X122475767Y-79828900D01*
X122475767Y-79828900D02*
X122542434Y-79928900D01*
X122542434Y-79928900D02*
X122609101Y-79995567D01*
X122609101Y-79995567D02*
X122675767Y-80028900D01*
X121842434Y-79828900D02*
X121775767Y-79828900D01*
X121775767Y-79828900D02*
X121709100Y-79862233D01*
X121709100Y-79862233D02*
X121675767Y-79895567D01*
X121675767Y-79895567D02*
X121642434Y-79962233D01*
X121642434Y-79962233D02*
X121609100Y-80095567D01*
X121609100Y-80095567D02*
X121609100Y-80262233D01*
X121609100Y-80262233D02*
X121642434Y-80395567D01*
X121642434Y-80395567D02*
X121675767Y-80462233D01*
X121675767Y-80462233D02*
X121709100Y-80495567D01*
X121709100Y-80495567D02*
X121775767Y-80528900D01*
X121775767Y-80528900D02*
X121842434Y-80528900D01*
X121842434Y-80528900D02*
X121909100Y-80495567D01*
X121909100Y-80495567D02*
X121942434Y-80462233D01*
X121942434Y-80462233D02*
X121975767Y-80395567D01*
X121975767Y-80395567D02*
X122009100Y-80262233D01*
X122009100Y-80262233D02*
X122009100Y-80095567D01*
X122009100Y-80095567D02*
X121975767Y-79962233D01*
X121975767Y-79962233D02*
X121942434Y-79895567D01*
X121942434Y-79895567D02*
X121909100Y-79862233D01*
X121909100Y-79862233D02*
X121842434Y-79828900D01*
X121175767Y-79828900D02*
X121109100Y-79828900D01*
X121109100Y-79828900D02*
X121042433Y-79862233D01*
X121042433Y-79862233D02*
X121009100Y-79895567D01*
X121009100Y-79895567D02*
X120975767Y-79962233D01*
X120975767Y-79962233D02*
X120942433Y-80095567D01*
X120942433Y-80095567D02*
X120942433Y-80262233D01*
X120942433Y-80262233D02*
X120975767Y-80395567D01*
X120975767Y-80395567D02*
X121009100Y-80462233D01*
X121009100Y-80462233D02*
X121042433Y-80495567D01*
X121042433Y-80495567D02*
X121109100Y-80528900D01*
X121109100Y-80528900D02*
X121175767Y-80528900D01*
X121175767Y-80528900D02*
X121242433Y-80495567D01*
X121242433Y-80495567D02*
X121275767Y-80462233D01*
X121275767Y-80462233D02*
X121309100Y-80395567D01*
X121309100Y-80395567D02*
X121342433Y-80262233D01*
X121342433Y-80262233D02*
X121342433Y-80095567D01*
X121342433Y-80095567D02*
X121309100Y-79962233D01*
X121309100Y-79962233D02*
X121275767Y-79895567D01*
X121275767Y-79895567D02*
X121242433Y-79862233D01*
X121242433Y-79862233D02*
X121175767Y-79828900D01*
X120642433Y-80062233D02*
X120642433Y-80762233D01*
X120309100Y-80428900D02*
X120275766Y-80495567D01*
X120275766Y-80495567D02*
X120209100Y-80528900D01*
X120642433Y-80428900D02*
X120609100Y-80495567D01*
X120609100Y-80495567D02*
X120542433Y-80528900D01*
X120542433Y-80528900D02*
X120409100Y-80528900D01*
X120409100Y-80528900D02*
X120342433Y-80495567D01*
X120342433Y-80495567D02*
X120309100Y-80428900D01*
X120309100Y-80428900D02*
X120309100Y-80062233D01*
X119675767Y-80162233D02*
X119909100Y-80162233D01*
X119909100Y-80528900D02*
X119909100Y-79828900D01*
X119909100Y-79828900D02*
X119575767Y-79828900D01*
X118575767Y-80795567D02*
X118609100Y-80762233D01*
X118609100Y-80762233D02*
X118675767Y-80662233D01*
X118675767Y-80662233D02*
X118709100Y-80595567D01*
X118709100Y-80595567D02*
X118742434Y-80495567D01*
X118742434Y-80495567D02*
X118775767Y-80328900D01*
X118775767Y-80328900D02*
X118775767Y-80195567D01*
X118775767Y-80195567D02*
X118742434Y-80028900D01*
X118742434Y-80028900D02*
X118709100Y-79928900D01*
X118709100Y-79928900D02*
X118675767Y-79862233D01*
X118675767Y-79862233D02*
X118609100Y-79762233D01*
X118609100Y-79762233D02*
X118575767Y-79728900D01*
X118209100Y-80528900D02*
X118275767Y-80495567D01*
X118275767Y-80495567D02*
X118309100Y-80462233D01*
X118309100Y-80462233D02*
X118342433Y-80395567D01*
X118342433Y-80395567D02*
X118342433Y-80195567D01*
X118342433Y-80195567D02*
X118309100Y-80128900D01*
X118309100Y-80128900D02*
X118275767Y-80095567D01*
X118275767Y-80095567D02*
X118209100Y-80062233D01*
X118209100Y-80062233D02*
X118109100Y-80062233D01*
X118109100Y-80062233D02*
X118042433Y-80095567D01*
X118042433Y-80095567D02*
X118009100Y-80128900D01*
X118009100Y-80128900D02*
X117975767Y-80195567D01*
X117975767Y-80195567D02*
X117975767Y-80395567D01*
X117975767Y-80395567D02*
X118009100Y-80462233D01*
X118009100Y-80462233D02*
X118042433Y-80495567D01*
X118042433Y-80495567D02*
X118109100Y-80528900D01*
X118109100Y-80528900D02*
X118209100Y-80528900D01*
X117675767Y-80062233D02*
X117675767Y-80762233D01*
X117675767Y-80095567D02*
X117609100Y-80062233D01*
X117609100Y-80062233D02*
X117475767Y-80062233D01*
X117475767Y-80062233D02*
X117409100Y-80095567D01*
X117409100Y-80095567D02*
X117375767Y-80128900D01*
X117375767Y-80128900D02*
X117342434Y-80195567D01*
X117342434Y-80195567D02*
X117342434Y-80395567D01*
X117342434Y-80395567D02*
X117375767Y-80462233D01*
X117375767Y-80462233D02*
X117409100Y-80495567D01*
X117409100Y-80495567D02*
X117475767Y-80528900D01*
X117475767Y-80528900D02*
X117609100Y-80528900D01*
X117609100Y-80528900D02*
X117675767Y-80495567D01*
X117142434Y-80062233D02*
X116875767Y-80062233D01*
X117042434Y-79828900D02*
X117042434Y-80428900D01*
X117042434Y-80428900D02*
X117009101Y-80495567D01*
X117009101Y-80495567D02*
X116942434Y-80528900D01*
X116942434Y-80528900D02*
X116875767Y-80528900D01*
X116709101Y-80795567D02*
X116675767Y-80762233D01*
X116675767Y-80762233D02*
X116609101Y-80662233D01*
X116609101Y-80662233D02*
X116575767Y-80595567D01*
X116575767Y-80595567D02*
X116542434Y-80495567D01*
X116542434Y-80495567D02*
X116509101Y-80328900D01*
X116509101Y-80328900D02*
X116509101Y-80195567D01*
X116509101Y-80195567D02*
X116542434Y-80028900D01*
X116542434Y-80028900D02*
X116575767Y-79928900D01*
X116575767Y-79928900D02*
X116609101Y-79862233D01*
X116609101Y-79862233D02*
X116675767Y-79762233D01*
X116675767Y-79762233D02*
X116709101Y-79728900D01*
X127875768Y-81655861D02*
X128109101Y-81322528D01*
X128275768Y-81655861D02*
X128275768Y-80955861D01*
X128275768Y-80955861D02*
X128009101Y-80955861D01*
X128009101Y-80955861D02*
X127942435Y-80989194D01*
X127942435Y-80989194D02*
X127909101Y-81022528D01*
X127909101Y-81022528D02*
X127875768Y-81089194D01*
X127875768Y-81089194D02*
X127875768Y-81189194D01*
X127875768Y-81189194D02*
X127909101Y-81255861D01*
X127909101Y-81255861D02*
X127942435Y-81289194D01*
X127942435Y-81289194D02*
X128009101Y-81322528D01*
X128009101Y-81322528D02*
X128275768Y-81322528D01*
X127209101Y-81655861D02*
X127609101Y-81655861D01*
X127409101Y-81655861D02*
X127409101Y-80955861D01*
X127409101Y-80955861D02*
X127475768Y-81055861D01*
X127475768Y-81055861D02*
X127542435Y-81122528D01*
X127542435Y-81122528D02*
X127609101Y-81155861D01*
X126242435Y-80955861D02*
X126175768Y-80955861D01*
X126175768Y-80955861D02*
X126109101Y-80989194D01*
X126109101Y-80989194D02*
X126075768Y-81022528D01*
X126075768Y-81022528D02*
X126042435Y-81089194D01*
X126042435Y-81089194D02*
X126009101Y-81222528D01*
X126009101Y-81222528D02*
X126009101Y-81389194D01*
X126009101Y-81389194D02*
X126042435Y-81522528D01*
X126042435Y-81522528D02*
X126075768Y-81589194D01*
X126075768Y-81589194D02*
X126109101Y-81622528D01*
X126109101Y-81622528D02*
X126175768Y-81655861D01*
X126175768Y-81655861D02*
X126242435Y-81655861D01*
X126242435Y-81655861D02*
X126309101Y-81622528D01*
X126309101Y-81622528D02*
X126342435Y-81589194D01*
X126342435Y-81589194D02*
X126375768Y-81522528D01*
X126375768Y-81522528D02*
X126409101Y-81389194D01*
X126409101Y-81389194D02*
X126409101Y-81222528D01*
X126409101Y-81222528D02*
X126375768Y-81089194D01*
X126375768Y-81089194D02*
X126342435Y-81022528D01*
X126342435Y-81022528D02*
X126309101Y-80989194D01*
X126309101Y-80989194D02*
X126242435Y-80955861D01*
X125609101Y-81255861D02*
X125675768Y-81222528D01*
X125675768Y-81222528D02*
X125709101Y-81189194D01*
X125709101Y-81189194D02*
X125742434Y-81122528D01*
X125742434Y-81122528D02*
X125742434Y-81089194D01*
X125742434Y-81089194D02*
X125709101Y-81022528D01*
X125709101Y-81022528D02*
X125675768Y-80989194D01*
X125675768Y-80989194D02*
X125609101Y-80955861D01*
X125609101Y-80955861D02*
X125475768Y-80955861D01*
X125475768Y-80955861D02*
X125409101Y-80989194D01*
X125409101Y-80989194D02*
X125375768Y-81022528D01*
X125375768Y-81022528D02*
X125342434Y-81089194D01*
X125342434Y-81089194D02*
X125342434Y-81122528D01*
X125342434Y-81122528D02*
X125375768Y-81189194D01*
X125375768Y-81189194D02*
X125409101Y-81222528D01*
X125409101Y-81222528D02*
X125475768Y-81255861D01*
X125475768Y-81255861D02*
X125609101Y-81255861D01*
X125609101Y-81255861D02*
X125675768Y-81289194D01*
X125675768Y-81289194D02*
X125709101Y-81322528D01*
X125709101Y-81322528D02*
X125742434Y-81389194D01*
X125742434Y-81389194D02*
X125742434Y-81522528D01*
X125742434Y-81522528D02*
X125709101Y-81589194D01*
X125709101Y-81589194D02*
X125675768Y-81622528D01*
X125675768Y-81622528D02*
X125609101Y-81655861D01*
X125609101Y-81655861D02*
X125475768Y-81655861D01*
X125475768Y-81655861D02*
X125409101Y-81622528D01*
X125409101Y-81622528D02*
X125375768Y-81589194D01*
X125375768Y-81589194D02*
X125342434Y-81522528D01*
X125342434Y-81522528D02*
X125342434Y-81389194D01*
X125342434Y-81389194D02*
X125375768Y-81322528D01*
X125375768Y-81322528D02*
X125409101Y-81289194D01*
X125409101Y-81289194D02*
X125475768Y-81255861D01*
X124909101Y-80955861D02*
X124842434Y-80955861D01*
X124842434Y-80955861D02*
X124775767Y-80989194D01*
X124775767Y-80989194D02*
X124742434Y-81022528D01*
X124742434Y-81022528D02*
X124709101Y-81089194D01*
X124709101Y-81089194D02*
X124675767Y-81222528D01*
X124675767Y-81222528D02*
X124675767Y-81389194D01*
X124675767Y-81389194D02*
X124709101Y-81522528D01*
X124709101Y-81522528D02*
X124742434Y-81589194D01*
X124742434Y-81589194D02*
X124775767Y-81622528D01*
X124775767Y-81622528D02*
X124842434Y-81655861D01*
X124842434Y-81655861D02*
X124909101Y-81655861D01*
X124909101Y-81655861D02*
X124975767Y-81622528D01*
X124975767Y-81622528D02*
X125009101Y-81589194D01*
X125009101Y-81589194D02*
X125042434Y-81522528D01*
X125042434Y-81522528D02*
X125075767Y-81389194D01*
X125075767Y-81389194D02*
X125075767Y-81222528D01*
X125075767Y-81222528D02*
X125042434Y-81089194D01*
X125042434Y-81089194D02*
X125009101Y-81022528D01*
X125009101Y-81022528D02*
X124975767Y-80989194D01*
X124975767Y-80989194D02*
X124909101Y-80955861D01*
X124042434Y-80955861D02*
X124375767Y-80955861D01*
X124375767Y-80955861D02*
X124409100Y-81289194D01*
X124409100Y-81289194D02*
X124375767Y-81255861D01*
X124375767Y-81255861D02*
X124309100Y-81222528D01*
X124309100Y-81222528D02*
X124142434Y-81222528D01*
X124142434Y-81222528D02*
X124075767Y-81255861D01*
X124075767Y-81255861D02*
X124042434Y-81289194D01*
X124042434Y-81289194D02*
X124009100Y-81355861D01*
X124009100Y-81355861D02*
X124009100Y-81522528D01*
X124009100Y-81522528D02*
X124042434Y-81589194D01*
X124042434Y-81589194D02*
X124075767Y-81622528D01*
X124075767Y-81622528D02*
X124142434Y-81655861D01*
X124142434Y-81655861D02*
X124309100Y-81655861D01*
X124309100Y-81655861D02*
X124375767Y-81622528D01*
X124375767Y-81622528D02*
X124409100Y-81589194D01*
X122709101Y-80955861D02*
X122275767Y-80955861D01*
X122275767Y-80955861D02*
X122509101Y-81222528D01*
X122509101Y-81222528D02*
X122409101Y-81222528D01*
X122409101Y-81222528D02*
X122342434Y-81255861D01*
X122342434Y-81255861D02*
X122309101Y-81289194D01*
X122309101Y-81289194D02*
X122275767Y-81355861D01*
X122275767Y-81355861D02*
X122275767Y-81522528D01*
X122275767Y-81522528D02*
X122309101Y-81589194D01*
X122309101Y-81589194D02*
X122342434Y-81622528D01*
X122342434Y-81622528D02*
X122409101Y-81655861D01*
X122409101Y-81655861D02*
X122609101Y-81655861D01*
X122609101Y-81655861D02*
X122675767Y-81622528D01*
X122675767Y-81622528D02*
X122709101Y-81589194D01*
X121842434Y-80955861D02*
X121775767Y-80955861D01*
X121775767Y-80955861D02*
X121709100Y-80989194D01*
X121709100Y-80989194D02*
X121675767Y-81022528D01*
X121675767Y-81022528D02*
X121642434Y-81089194D01*
X121642434Y-81089194D02*
X121609100Y-81222528D01*
X121609100Y-81222528D02*
X121609100Y-81389194D01*
X121609100Y-81389194D02*
X121642434Y-81522528D01*
X121642434Y-81522528D02*
X121675767Y-81589194D01*
X121675767Y-81589194D02*
X121709100Y-81622528D01*
X121709100Y-81622528D02*
X121775767Y-81655861D01*
X121775767Y-81655861D02*
X121842434Y-81655861D01*
X121842434Y-81655861D02*
X121909100Y-81622528D01*
X121909100Y-81622528D02*
X121942434Y-81589194D01*
X121942434Y-81589194D02*
X121975767Y-81522528D01*
X121975767Y-81522528D02*
X122009100Y-81389194D01*
X122009100Y-81389194D02*
X122009100Y-81222528D01*
X122009100Y-81222528D02*
X121975767Y-81089194D01*
X121975767Y-81089194D02*
X121942434Y-81022528D01*
X121942434Y-81022528D02*
X121909100Y-80989194D01*
X121909100Y-80989194D02*
X121842434Y-80955861D01*
X121175767Y-80955861D02*
X121109100Y-80955861D01*
X121109100Y-80955861D02*
X121042433Y-80989194D01*
X121042433Y-80989194D02*
X121009100Y-81022528D01*
X121009100Y-81022528D02*
X120975767Y-81089194D01*
X120975767Y-81089194D02*
X120942433Y-81222528D01*
X120942433Y-81222528D02*
X120942433Y-81389194D01*
X120942433Y-81389194D02*
X120975767Y-81522528D01*
X120975767Y-81522528D02*
X121009100Y-81589194D01*
X121009100Y-81589194D02*
X121042433Y-81622528D01*
X121042433Y-81622528D02*
X121109100Y-81655861D01*
X121109100Y-81655861D02*
X121175767Y-81655861D01*
X121175767Y-81655861D02*
X121242433Y-81622528D01*
X121242433Y-81622528D02*
X121275767Y-81589194D01*
X121275767Y-81589194D02*
X121309100Y-81522528D01*
X121309100Y-81522528D02*
X121342433Y-81389194D01*
X121342433Y-81389194D02*
X121342433Y-81222528D01*
X121342433Y-81222528D02*
X121309100Y-81089194D01*
X121309100Y-81089194D02*
X121275767Y-81022528D01*
X121275767Y-81022528D02*
X121242433Y-80989194D01*
X121242433Y-80989194D02*
X121175767Y-80955861D01*
X120675766Y-81655861D02*
X120509100Y-81655861D01*
X120509100Y-81655861D02*
X120509100Y-81522528D01*
X120509100Y-81522528D02*
X120575766Y-81489194D01*
X120575766Y-81489194D02*
X120642433Y-81422528D01*
X120642433Y-81422528D02*
X120675766Y-81322528D01*
X120675766Y-81322528D02*
X120675766Y-81155861D01*
X120675766Y-81155861D02*
X120642433Y-81055861D01*
X120642433Y-81055861D02*
X120575766Y-80989194D01*
X120575766Y-80989194D02*
X120475766Y-80955861D01*
X120475766Y-80955861D02*
X120342433Y-80955861D01*
X120342433Y-80955861D02*
X120242433Y-80989194D01*
X120242433Y-80989194D02*
X120175766Y-81055861D01*
X120175766Y-81055861D02*
X120142433Y-81155861D01*
X120142433Y-81155861D02*
X120142433Y-81322528D01*
X120142433Y-81322528D02*
X120175766Y-81422528D01*
X120175766Y-81422528D02*
X120242433Y-81489194D01*
X120242433Y-81489194D02*
X120309100Y-81522528D01*
X120309100Y-81522528D02*
X120309100Y-81655861D01*
X120309100Y-81655861D02*
X120142433Y-81655861D01*
X127875768Y-82782822D02*
X128109101Y-82449489D01*
X128275768Y-82782822D02*
X128275768Y-82082822D01*
X128275768Y-82082822D02*
X128009101Y-82082822D01*
X128009101Y-82082822D02*
X127942435Y-82116155D01*
X127942435Y-82116155D02*
X127909101Y-82149489D01*
X127909101Y-82149489D02*
X127875768Y-82216155D01*
X127875768Y-82216155D02*
X127875768Y-82316155D01*
X127875768Y-82316155D02*
X127909101Y-82382822D01*
X127909101Y-82382822D02*
X127942435Y-82416155D01*
X127942435Y-82416155D02*
X128009101Y-82449489D01*
X128009101Y-82449489D02*
X128275768Y-82449489D01*
X127609101Y-82149489D02*
X127575768Y-82116155D01*
X127575768Y-82116155D02*
X127509101Y-82082822D01*
X127509101Y-82082822D02*
X127342435Y-82082822D01*
X127342435Y-82082822D02*
X127275768Y-82116155D01*
X127275768Y-82116155D02*
X127242435Y-82149489D01*
X127242435Y-82149489D02*
X127209101Y-82216155D01*
X127209101Y-82216155D02*
X127209101Y-82282822D01*
X127209101Y-82282822D02*
X127242435Y-82382822D01*
X127242435Y-82382822D02*
X127642435Y-82782822D01*
X127642435Y-82782822D02*
X127209101Y-82782822D01*
X126242435Y-82082822D02*
X126175768Y-82082822D01*
X126175768Y-82082822D02*
X126109101Y-82116155D01*
X126109101Y-82116155D02*
X126075768Y-82149489D01*
X126075768Y-82149489D02*
X126042435Y-82216155D01*
X126042435Y-82216155D02*
X126009101Y-82349489D01*
X126009101Y-82349489D02*
X126009101Y-82516155D01*
X126009101Y-82516155D02*
X126042435Y-82649489D01*
X126042435Y-82649489D02*
X126075768Y-82716155D01*
X126075768Y-82716155D02*
X126109101Y-82749489D01*
X126109101Y-82749489D02*
X126175768Y-82782822D01*
X126175768Y-82782822D02*
X126242435Y-82782822D01*
X126242435Y-82782822D02*
X126309101Y-82749489D01*
X126309101Y-82749489D02*
X126342435Y-82716155D01*
X126342435Y-82716155D02*
X126375768Y-82649489D01*
X126375768Y-82649489D02*
X126409101Y-82516155D01*
X126409101Y-82516155D02*
X126409101Y-82349489D01*
X126409101Y-82349489D02*
X126375768Y-82216155D01*
X126375768Y-82216155D02*
X126342435Y-82149489D01*
X126342435Y-82149489D02*
X126309101Y-82116155D01*
X126309101Y-82116155D02*
X126242435Y-82082822D01*
X125609101Y-82382822D02*
X125675768Y-82349489D01*
X125675768Y-82349489D02*
X125709101Y-82316155D01*
X125709101Y-82316155D02*
X125742434Y-82249489D01*
X125742434Y-82249489D02*
X125742434Y-82216155D01*
X125742434Y-82216155D02*
X125709101Y-82149489D01*
X125709101Y-82149489D02*
X125675768Y-82116155D01*
X125675768Y-82116155D02*
X125609101Y-82082822D01*
X125609101Y-82082822D02*
X125475768Y-82082822D01*
X125475768Y-82082822D02*
X125409101Y-82116155D01*
X125409101Y-82116155D02*
X125375768Y-82149489D01*
X125375768Y-82149489D02*
X125342434Y-82216155D01*
X125342434Y-82216155D02*
X125342434Y-82249489D01*
X125342434Y-82249489D02*
X125375768Y-82316155D01*
X125375768Y-82316155D02*
X125409101Y-82349489D01*
X125409101Y-82349489D02*
X125475768Y-82382822D01*
X125475768Y-82382822D02*
X125609101Y-82382822D01*
X125609101Y-82382822D02*
X125675768Y-82416155D01*
X125675768Y-82416155D02*
X125709101Y-82449489D01*
X125709101Y-82449489D02*
X125742434Y-82516155D01*
X125742434Y-82516155D02*
X125742434Y-82649489D01*
X125742434Y-82649489D02*
X125709101Y-82716155D01*
X125709101Y-82716155D02*
X125675768Y-82749489D01*
X125675768Y-82749489D02*
X125609101Y-82782822D01*
X125609101Y-82782822D02*
X125475768Y-82782822D01*
X125475768Y-82782822D02*
X125409101Y-82749489D01*
X125409101Y-82749489D02*
X125375768Y-82716155D01*
X125375768Y-82716155D02*
X125342434Y-82649489D01*
X125342434Y-82649489D02*
X125342434Y-82516155D01*
X125342434Y-82516155D02*
X125375768Y-82449489D01*
X125375768Y-82449489D02*
X125409101Y-82416155D01*
X125409101Y-82416155D02*
X125475768Y-82382822D01*
X124909101Y-82082822D02*
X124842434Y-82082822D01*
X124842434Y-82082822D02*
X124775767Y-82116155D01*
X124775767Y-82116155D02*
X124742434Y-82149489D01*
X124742434Y-82149489D02*
X124709101Y-82216155D01*
X124709101Y-82216155D02*
X124675767Y-82349489D01*
X124675767Y-82349489D02*
X124675767Y-82516155D01*
X124675767Y-82516155D02*
X124709101Y-82649489D01*
X124709101Y-82649489D02*
X124742434Y-82716155D01*
X124742434Y-82716155D02*
X124775767Y-82749489D01*
X124775767Y-82749489D02*
X124842434Y-82782822D01*
X124842434Y-82782822D02*
X124909101Y-82782822D01*
X124909101Y-82782822D02*
X124975767Y-82749489D01*
X124975767Y-82749489D02*
X125009101Y-82716155D01*
X125009101Y-82716155D02*
X125042434Y-82649489D01*
X125042434Y-82649489D02*
X125075767Y-82516155D01*
X125075767Y-82516155D02*
X125075767Y-82349489D01*
X125075767Y-82349489D02*
X125042434Y-82216155D01*
X125042434Y-82216155D02*
X125009101Y-82149489D01*
X125009101Y-82149489D02*
X124975767Y-82116155D01*
X124975767Y-82116155D02*
X124909101Y-82082822D01*
X124042434Y-82082822D02*
X124375767Y-82082822D01*
X124375767Y-82082822D02*
X124409100Y-82416155D01*
X124409100Y-82416155D02*
X124375767Y-82382822D01*
X124375767Y-82382822D02*
X124309100Y-82349489D01*
X124309100Y-82349489D02*
X124142434Y-82349489D01*
X124142434Y-82349489D02*
X124075767Y-82382822D01*
X124075767Y-82382822D02*
X124042434Y-82416155D01*
X124042434Y-82416155D02*
X124009100Y-82482822D01*
X124009100Y-82482822D02*
X124009100Y-82649489D01*
X124009100Y-82649489D02*
X124042434Y-82716155D01*
X124042434Y-82716155D02*
X124075767Y-82749489D01*
X124075767Y-82749489D02*
X124142434Y-82782822D01*
X124142434Y-82782822D02*
X124309100Y-82782822D01*
X124309100Y-82782822D02*
X124375767Y-82749489D01*
X124375767Y-82749489D02*
X124409100Y-82716155D01*
X122275767Y-82782822D02*
X122675767Y-82782822D01*
X122475767Y-82782822D02*
X122475767Y-82082822D01*
X122475767Y-82082822D02*
X122542434Y-82182822D01*
X122542434Y-82182822D02*
X122609101Y-82249489D01*
X122609101Y-82249489D02*
X122675767Y-82282822D01*
X121609100Y-82782822D02*
X122009100Y-82782822D01*
X121809100Y-82782822D02*
X121809100Y-82082822D01*
X121809100Y-82082822D02*
X121875767Y-82182822D01*
X121875767Y-82182822D02*
X121942434Y-82249489D01*
X121942434Y-82249489D02*
X122009100Y-82282822D01*
X121175767Y-82082822D02*
X121109100Y-82082822D01*
X121109100Y-82082822D02*
X121042433Y-82116155D01*
X121042433Y-82116155D02*
X121009100Y-82149489D01*
X121009100Y-82149489D02*
X120975767Y-82216155D01*
X120975767Y-82216155D02*
X120942433Y-82349489D01*
X120942433Y-82349489D02*
X120942433Y-82516155D01*
X120942433Y-82516155D02*
X120975767Y-82649489D01*
X120975767Y-82649489D02*
X121009100Y-82716155D01*
X121009100Y-82716155D02*
X121042433Y-82749489D01*
X121042433Y-82749489D02*
X121109100Y-82782822D01*
X121109100Y-82782822D02*
X121175767Y-82782822D01*
X121175767Y-82782822D02*
X121242433Y-82749489D01*
X121242433Y-82749489D02*
X121275767Y-82716155D01*
X121275767Y-82716155D02*
X121309100Y-82649489D01*
X121309100Y-82649489D02*
X121342433Y-82516155D01*
X121342433Y-82516155D02*
X121342433Y-82349489D01*
X121342433Y-82349489D02*
X121309100Y-82216155D01*
X121309100Y-82216155D02*
X121275767Y-82149489D01*
X121275767Y-82149489D02*
X121242433Y-82116155D01*
X121242433Y-82116155D02*
X121175767Y-82082822D01*
X120675766Y-82782822D02*
X120509100Y-82782822D01*
X120509100Y-82782822D02*
X120509100Y-82649489D01*
X120509100Y-82649489D02*
X120575766Y-82616155D01*
X120575766Y-82616155D02*
X120642433Y-82549489D01*
X120642433Y-82549489D02*
X120675766Y-82449489D01*
X120675766Y-82449489D02*
X120675766Y-82282822D01*
X120675766Y-82282822D02*
X120642433Y-82182822D01*
X120642433Y-82182822D02*
X120575766Y-82116155D01*
X120575766Y-82116155D02*
X120475766Y-82082822D01*
X120475766Y-82082822D02*
X120342433Y-82082822D01*
X120342433Y-82082822D02*
X120242433Y-82116155D01*
X120242433Y-82116155D02*
X120175766Y-82182822D01*
X120175766Y-82182822D02*
X120142433Y-82282822D01*
X120142433Y-82282822D02*
X120142433Y-82449489D01*
X120142433Y-82449489D02*
X120175766Y-82549489D01*
X120175766Y-82549489D02*
X120242433Y-82616155D01*
X120242433Y-82616155D02*
X120309100Y-82649489D01*
X120309100Y-82649489D02*
X120309100Y-82782822D01*
X120309100Y-82782822D02*
X120142433Y-82782822D01*
X127809101Y-83976450D02*
X127875768Y-83943116D01*
X127875768Y-83943116D02*
X127942435Y-83876450D01*
X127942435Y-83876450D02*
X128042435Y-83776450D01*
X128042435Y-83776450D02*
X128109101Y-83743116D01*
X128109101Y-83743116D02*
X128175768Y-83743116D01*
X128142435Y-83909783D02*
X128209101Y-83876450D01*
X128209101Y-83876450D02*
X128275768Y-83809783D01*
X128275768Y-83809783D02*
X128309101Y-83676450D01*
X128309101Y-83676450D02*
X128309101Y-83443116D01*
X128309101Y-83443116D02*
X128275768Y-83309783D01*
X128275768Y-83309783D02*
X128209101Y-83243116D01*
X128209101Y-83243116D02*
X128142435Y-83209783D01*
X128142435Y-83209783D02*
X128009101Y-83209783D01*
X128009101Y-83209783D02*
X127942435Y-83243116D01*
X127942435Y-83243116D02*
X127875768Y-83309783D01*
X127875768Y-83309783D02*
X127842435Y-83443116D01*
X127842435Y-83443116D02*
X127842435Y-83676450D01*
X127842435Y-83676450D02*
X127875768Y-83809783D01*
X127875768Y-83809783D02*
X127942435Y-83876450D01*
X127942435Y-83876450D02*
X128009101Y-83909783D01*
X128009101Y-83909783D02*
X128142435Y-83909783D01*
X127175768Y-83909783D02*
X127575768Y-83909783D01*
X127375768Y-83909783D02*
X127375768Y-83209783D01*
X127375768Y-83209783D02*
X127442435Y-83309783D01*
X127442435Y-83309783D02*
X127509102Y-83376450D01*
X127509102Y-83376450D02*
X127575768Y-83409783D01*
X126375768Y-83876450D02*
X126275768Y-83909783D01*
X126275768Y-83909783D02*
X126109102Y-83909783D01*
X126109102Y-83909783D02*
X126042435Y-83876450D01*
X126042435Y-83876450D02*
X126009102Y-83843116D01*
X126009102Y-83843116D02*
X125975768Y-83776450D01*
X125975768Y-83776450D02*
X125975768Y-83709783D01*
X125975768Y-83709783D02*
X126009102Y-83643116D01*
X126009102Y-83643116D02*
X126042435Y-83609783D01*
X126042435Y-83609783D02*
X126109102Y-83576450D01*
X126109102Y-83576450D02*
X126242435Y-83543116D01*
X126242435Y-83543116D02*
X126309102Y-83509783D01*
X126309102Y-83509783D02*
X126342435Y-83476450D01*
X126342435Y-83476450D02*
X126375768Y-83409783D01*
X126375768Y-83409783D02*
X126375768Y-83343116D01*
X126375768Y-83343116D02*
X126342435Y-83276450D01*
X126342435Y-83276450D02*
X126309102Y-83243116D01*
X126309102Y-83243116D02*
X126242435Y-83209783D01*
X126242435Y-83209783D02*
X126075768Y-83209783D01*
X126075768Y-83209783D02*
X125975768Y-83243116D01*
X125542435Y-83209783D02*
X125409101Y-83209783D01*
X125409101Y-83209783D02*
X125342435Y-83243116D01*
X125342435Y-83243116D02*
X125275768Y-83309783D01*
X125275768Y-83309783D02*
X125242435Y-83443116D01*
X125242435Y-83443116D02*
X125242435Y-83676450D01*
X125242435Y-83676450D02*
X125275768Y-83809783D01*
X125275768Y-83809783D02*
X125342435Y-83876450D01*
X125342435Y-83876450D02*
X125409101Y-83909783D01*
X125409101Y-83909783D02*
X125542435Y-83909783D01*
X125542435Y-83909783D02*
X125609101Y-83876450D01*
X125609101Y-83876450D02*
X125675768Y-83809783D01*
X125675768Y-83809783D02*
X125709101Y-83676450D01*
X125709101Y-83676450D02*
X125709101Y-83443116D01*
X125709101Y-83443116D02*
X125675768Y-83309783D01*
X125675768Y-83309783D02*
X125609101Y-83243116D01*
X125609101Y-83243116D02*
X125542435Y-83209783D01*
X125042435Y-83209783D02*
X124642435Y-83209783D01*
X124842435Y-83909783D02*
X124842435Y-83209783D01*
X124442435Y-83276450D02*
X124409102Y-83243116D01*
X124409102Y-83243116D02*
X124342435Y-83209783D01*
X124342435Y-83209783D02*
X124175769Y-83209783D01*
X124175769Y-83209783D02*
X124109102Y-83243116D01*
X124109102Y-83243116D02*
X124075769Y-83276450D01*
X124075769Y-83276450D02*
X124042435Y-83343116D01*
X124042435Y-83343116D02*
X124042435Y-83409783D01*
X124042435Y-83409783D02*
X124075769Y-83509783D01*
X124075769Y-83509783D02*
X124475769Y-83909783D01*
X124475769Y-83909783D02*
X124042435Y-83909783D01*
X123809102Y-83209783D02*
X123375768Y-83209783D01*
X123375768Y-83209783D02*
X123609102Y-83476450D01*
X123609102Y-83476450D02*
X123509102Y-83476450D01*
X123509102Y-83476450D02*
X123442435Y-83509783D01*
X123442435Y-83509783D02*
X123409102Y-83543116D01*
X123409102Y-83543116D02*
X123375768Y-83609783D01*
X123375768Y-83609783D02*
X123375768Y-83776450D01*
X123375768Y-83776450D02*
X123409102Y-83843116D01*
X123409102Y-83843116D02*
X123442435Y-83876450D01*
X123442435Y-83876450D02*
X123509102Y-83909783D01*
X123509102Y-83909783D02*
X123709102Y-83909783D01*
X123709102Y-83909783D02*
X123775768Y-83876450D01*
X123775768Y-83876450D02*
X123809102Y-83843116D01*
X122542435Y-83909783D02*
X122542435Y-83209783D01*
X122542435Y-83209783D02*
X122309102Y-83709783D01*
X122309102Y-83709783D02*
X122075768Y-83209783D01*
X122075768Y-83209783D02*
X122075768Y-83909783D01*
X121742435Y-83909783D02*
X121742435Y-83209783D01*
X121742435Y-83209783D02*
X121509102Y-83709783D01*
X121509102Y-83709783D02*
X121275768Y-83209783D01*
X121275768Y-83209783D02*
X121275768Y-83909783D01*
X120709102Y-83543116D02*
X120609102Y-83576450D01*
X120609102Y-83576450D02*
X120575768Y-83609783D01*
X120575768Y-83609783D02*
X120542435Y-83676450D01*
X120542435Y-83676450D02*
X120542435Y-83776450D01*
X120542435Y-83776450D02*
X120575768Y-83843116D01*
X120575768Y-83843116D02*
X120609102Y-83876450D01*
X120609102Y-83876450D02*
X120675768Y-83909783D01*
X120675768Y-83909783D02*
X120942435Y-83909783D01*
X120942435Y-83909783D02*
X120942435Y-83209783D01*
X120942435Y-83209783D02*
X120709102Y-83209783D01*
X120709102Y-83209783D02*
X120642435Y-83243116D01*
X120642435Y-83243116D02*
X120609102Y-83276450D01*
X120609102Y-83276450D02*
X120575768Y-83343116D01*
X120575768Y-83343116D02*
X120575768Y-83409783D01*
X120575768Y-83409783D02*
X120609102Y-83476450D01*
X120609102Y-83476450D02*
X120642435Y-83509783D01*
X120642435Y-83509783D02*
X120709102Y-83543116D01*
X120709102Y-83543116D02*
X120942435Y-83543116D01*
X120342435Y-83209783D02*
X119942435Y-83209783D01*
X120142435Y-83909783D02*
X120142435Y-83209783D01*
X119775769Y-83209783D02*
X119342435Y-83209783D01*
X119342435Y-83209783D02*
X119575769Y-83476450D01*
X119575769Y-83476450D02*
X119475769Y-83476450D01*
X119475769Y-83476450D02*
X119409102Y-83509783D01*
X119409102Y-83509783D02*
X119375769Y-83543116D01*
X119375769Y-83543116D02*
X119342435Y-83609783D01*
X119342435Y-83609783D02*
X119342435Y-83776450D01*
X119342435Y-83776450D02*
X119375769Y-83843116D01*
X119375769Y-83843116D02*
X119409102Y-83876450D01*
X119409102Y-83876450D02*
X119475769Y-83909783D01*
X119475769Y-83909783D02*
X119675769Y-83909783D01*
X119675769Y-83909783D02*
X119742435Y-83876450D01*
X119742435Y-83876450D02*
X119775769Y-83843116D01*
X119009102Y-83909783D02*
X118875768Y-83909783D01*
X118875768Y-83909783D02*
X118809102Y-83876450D01*
X118809102Y-83876450D02*
X118775768Y-83843116D01*
X118775768Y-83843116D02*
X118709102Y-83743116D01*
X118709102Y-83743116D02*
X118675768Y-83609783D01*
X118675768Y-83609783D02*
X118675768Y-83343116D01*
X118675768Y-83343116D02*
X118709102Y-83276450D01*
X118709102Y-83276450D02*
X118742435Y-83243116D01*
X118742435Y-83243116D02*
X118809102Y-83209783D01*
X118809102Y-83209783D02*
X118942435Y-83209783D01*
X118942435Y-83209783D02*
X119009102Y-83243116D01*
X119009102Y-83243116D02*
X119042435Y-83276450D01*
X119042435Y-83276450D02*
X119075768Y-83343116D01*
X119075768Y-83343116D02*
X119075768Y-83509783D01*
X119075768Y-83509783D02*
X119042435Y-83576450D01*
X119042435Y-83576450D02*
X119009102Y-83609783D01*
X119009102Y-83609783D02*
X118942435Y-83643116D01*
X118942435Y-83643116D02*
X118809102Y-83643116D01*
X118809102Y-83643116D02*
X118742435Y-83609783D01*
X118742435Y-83609783D02*
X118709102Y-83576450D01*
X118709102Y-83576450D02*
X118675768Y-83509783D01*
X118242435Y-83209783D02*
X118175768Y-83209783D01*
X118175768Y-83209783D02*
X118109101Y-83243116D01*
X118109101Y-83243116D02*
X118075768Y-83276450D01*
X118075768Y-83276450D02*
X118042435Y-83343116D01*
X118042435Y-83343116D02*
X118009101Y-83476450D01*
X118009101Y-83476450D02*
X118009101Y-83643116D01*
X118009101Y-83643116D02*
X118042435Y-83776450D01*
X118042435Y-83776450D02*
X118075768Y-83843116D01*
X118075768Y-83843116D02*
X118109101Y-83876450D01*
X118109101Y-83876450D02*
X118175768Y-83909783D01*
X118175768Y-83909783D02*
X118242435Y-83909783D01*
X118242435Y-83909783D02*
X118309101Y-83876450D01*
X118309101Y-83876450D02*
X118342435Y-83843116D01*
X118342435Y-83843116D02*
X118375768Y-83776450D01*
X118375768Y-83776450D02*
X118409101Y-83643116D01*
X118409101Y-83643116D02*
X118409101Y-83476450D01*
X118409101Y-83476450D02*
X118375768Y-83343116D01*
X118375768Y-83343116D02*
X118342435Y-83276450D01*
X118342435Y-83276450D02*
X118309101Y-83243116D01*
X118309101Y-83243116D02*
X118242435Y-83209783D01*
X117409101Y-83209783D02*
X117542434Y-83209783D01*
X117542434Y-83209783D02*
X117609101Y-83243116D01*
X117609101Y-83243116D02*
X117642434Y-83276450D01*
X117642434Y-83276450D02*
X117709101Y-83376450D01*
X117709101Y-83376450D02*
X117742434Y-83509783D01*
X117742434Y-83509783D02*
X117742434Y-83776450D01*
X117742434Y-83776450D02*
X117709101Y-83843116D01*
X117709101Y-83843116D02*
X117675768Y-83876450D01*
X117675768Y-83876450D02*
X117609101Y-83909783D01*
X117609101Y-83909783D02*
X117475768Y-83909783D01*
X117475768Y-83909783D02*
X117409101Y-83876450D01*
X117409101Y-83876450D02*
X117375768Y-83843116D01*
X117375768Y-83843116D02*
X117342434Y-83776450D01*
X117342434Y-83776450D02*
X117342434Y-83609783D01*
X117342434Y-83609783D02*
X117375768Y-83543116D01*
X117375768Y-83543116D02*
X117409101Y-83509783D01*
X117409101Y-83509783D02*
X117475768Y-83476450D01*
X117475768Y-83476450D02*
X117609101Y-83476450D01*
X117609101Y-83476450D02*
X117675768Y-83509783D01*
X117675768Y-83509783D02*
X117709101Y-83543116D01*
X117709101Y-83543116D02*
X117742434Y-83609783D01*
M02*
