%TF.GenerationSoftware,KiCad,Pcbnew,10.0.1*%
%TF.CreationDate,2026-06-12T13:23:50-04:00*%
%TF.ProjectId,FamiComposite,46616d69-436f-46d7-906f-736974652e6b,rev?*%
%TF.SameCoordinates,Original*%
%TF.FileFunction,Copper,L2,Bot*%
%TF.FilePolarity,Positive*%
%FSLAX46Y46*%
G04 Gerber Fmt 4.6, Leading zero omitted, Abs format (unit mm)*
G04 Created by KiCad (PCBNEW 10.0.1) date 2026-06-12 13:23:50*
%MOMM*%
%LPD*%
G01*
G04 APERTURE LIST*
%TA.AperFunction,CastellatedPad*%
%ADD10C,2.000000*%
%TD*%
G04 APERTURE END LIST*
D10*
%TO.P,TP3,1,1_1*%
%TO.N,GND*%
X116999585Y-88240193D03*
%TD*%
%TO.P,TP1,1,1_1*%
%TO.N,Net-(Q1-B)*%
X116999585Y-73000193D03*
%TD*%
%TO.P,TP2,1,1_1*%
%TO.N,+5V*%
X119539585Y-73000193D03*
%TD*%
%TA.AperFunction,Conductor*%
%TO.N,GND*%
G36*
X120879739Y-74516447D02*
G01*
X120900421Y-74533106D01*
X120988136Y-74620821D01*
X120989297Y-74621982D01*
X121120399Y-74709582D01*
X121120403Y-74709584D01*
X121120406Y-74709586D01*
X121266088Y-74769930D01*
X121266092Y-74769930D01*
X121266093Y-74769931D01*
X121420739Y-74800693D01*
X121420742Y-74800693D01*
X121460023Y-74800693D01*
X131451990Y-74800693D01*
X131489828Y-74800693D01*
X131509214Y-74802218D01*
X131541839Y-74807385D01*
X131578725Y-74819369D01*
X131599351Y-74829878D01*
X131630735Y-74852681D01*
X131647096Y-74869042D01*
X131669898Y-74900426D01*
X131680406Y-74921048D01*
X131692393Y-74957941D01*
X131696246Y-74982269D01*
X131697558Y-74990552D01*
X131699084Y-75009948D01*
X131699071Y-85952443D01*
X131699071Y-85990282D01*
X131697544Y-86009681D01*
X131692379Y-86042289D01*
X131680392Y-86079183D01*
X131669887Y-86099801D01*
X131647082Y-86131189D01*
X131630721Y-86147550D01*
X131599333Y-86170355D01*
X131578715Y-86180860D01*
X131541821Y-86192847D01*
X131525459Y-86195438D01*
X131509209Y-86198012D01*
X131489814Y-86199539D01*
X131444383Y-86199539D01*
X131444365Y-86199540D01*
X118960019Y-86199693D01*
X118920740Y-86199693D01*
X118766093Y-86230454D01*
X118766087Y-86230456D01*
X118620409Y-86290798D01*
X118620399Y-86290803D01*
X118489296Y-86378404D01*
X118489292Y-86378407D01*
X118377799Y-86489900D01*
X118377796Y-86489904D01*
X118290195Y-86621007D01*
X118290190Y-86621017D01*
X118229848Y-86766695D01*
X118229846Y-86766701D01*
X118199085Y-86921347D01*
X118199085Y-87342885D01*
X118179400Y-87409924D01*
X118162766Y-87430566D01*
X117689958Y-87903374D01*
X117628635Y-87936859D01*
X117602277Y-87939693D01*
X117461177Y-87939693D01*
X117439695Y-87902485D01*
X117337293Y-87800083D01*
X117211877Y-87727675D01*
X117169819Y-87716405D01*
X117868690Y-87017533D01*
X117868689Y-87017531D01*
X117785759Y-86957280D01*
X117575387Y-86850090D01*
X117350832Y-86777127D01*
X117350833Y-86777127D01*
X117117637Y-86740193D01*
X116881533Y-86740193D01*
X116648337Y-86777127D01*
X116423782Y-86850090D01*
X116213415Y-86957277D01*
X116130479Y-87017533D01*
X116829351Y-87716405D01*
X116787293Y-87727675D01*
X116661877Y-87800083D01*
X116559475Y-87902485D01*
X116537993Y-87939693D01*
X116396893Y-87939693D01*
X116329854Y-87920008D01*
X116309212Y-87903374D01*
X115836404Y-87430566D01*
X115802919Y-87369243D01*
X115800085Y-87342885D01*
X115800085Y-86460632D01*
X115779605Y-86384202D01*
X115779602Y-86384197D01*
X115740049Y-86315688D01*
X115740043Y-86315680D01*
X114336410Y-84912047D01*
X114302925Y-84850724D01*
X114300091Y-84824361D01*
X114300497Y-75062039D01*
X114300497Y-75062037D01*
X114300498Y-75047599D01*
X114300500Y-75047595D01*
X114300500Y-75009746D01*
X114302025Y-74990371D01*
X114307192Y-74957743D01*
X114319176Y-74920860D01*
X114329687Y-74900230D01*
X114352485Y-74868852D01*
X114368852Y-74852485D01*
X114400228Y-74829688D01*
X114420860Y-74819176D01*
X114457745Y-74807192D01*
X114489149Y-74802218D01*
X114508539Y-74800693D01*
X115078430Y-74800693D01*
X115182473Y-74779996D01*
X115233082Y-74769930D01*
X115378764Y-74709586D01*
X115509874Y-74621981D01*
X115596513Y-74535341D01*
X115657834Y-74501858D01*
X115684138Y-74499024D01*
X116857925Y-74498513D01*
X116877366Y-74500039D01*
X116881493Y-74500693D01*
X116881496Y-74500693D01*
X117117672Y-74500693D01*
X117117677Y-74500693D01*
X117122583Y-74499915D01*
X117141911Y-74498389D01*
X119390966Y-74497411D01*
X119410409Y-74498937D01*
X119421493Y-74500693D01*
X119421495Y-74500693D01*
X119657676Y-74500693D01*
X119657677Y-74500693D01*
X119669581Y-74498807D01*
X119688897Y-74497281D01*
X120812693Y-74496792D01*
X120879739Y-74516447D01*
G37*
%TD.AperFunction*%
%TD*%
M02*
